<?xml version="1.0" encoding="UTF-8" standalone="no"?>
<!-- Created with Inkscape (http://www.inkscape.org/) -->

<svg
   xmlns:dc="http://purl.org/dc/elements/1.1/"
   xmlns:cc="http://creativecommons.org/ns#"
   xmlns:rdf="http://www.w3.org/1999/02/22-rdf-syntax-ns#"
   xmlns:svg="http://www.w3.org/2000/svg"
   xmlns="http://www.w3.org/2000/svg"
   xmlns:sodipodi="http://sodipodi.sourceforge.net/DTD/sodipodi-0.dtd"
   xmlns:inkscape="http://www.inkscape.org/namespaces/inkscape"
   id="svg5733"
   viewBox="0 0 32.054871 40"
   version="1.0"
   inkscape:version="0.48.5 r10040"
   width="32px"
   height="40px"
   sodipodi:docname="logo.svg">
  <defs
     id="defs3177" />
  <sodipodi:namedview
     pagecolor="#ffffff"
     bordercolor="#666666"
     borderopacity="1"
     objecttolerance="10"
     gridtolerance="10"
     guidetolerance="10"
     inkscape:pageopacity="0"
     inkscape:pageshadow="2"
     inkscape:window-width="1280"
     inkscape:window-height="938"
     id="namedview3175"
     showgrid="false"
     fit-margin-top="0"
     fit-margin-left="0"
     fit-margin-right="0"
     fit-margin-bottom="0"
     inkscape:zoom="0.52771629"
     inkscape:cx="179.18276"
     inkscape:cy="223.5403"
     inkscape:window-x="-4"
     inkscape:window-y="-4"
     inkscape:window-maximized="1"
     inkscape:current-layer="svg5733" />
  <g
     id="layer1"
     transform="matrix(0.08944885,0,0,0.08944885,-21.540828,-25.222109)">
    <g
       id="g5712"
       transform="matrix(8.131,0,0,8.131,-3472.7,-3025.9)">
      <rect
         id="rect4350"
         style="fill:#aa4400"
         transform="matrix(0.96592583,-0.25881905,0.25881905,0.96592583,0,0)"
         height="42.634998"
         width="34.203999"
         y="524.51001"
         x="332.28" />
      <rect
         id="rect5146"
         style="fill:#ffffff"
         transform="matrix(0.96592583,-0.25881905,0.25881905,0.96592583,0,0)"
         height="38.202"
         width="28.995001"
         y="526.52002"
         x="334.89001" />
      <g
         id="g5695"
         transform="matrix(0.96593,-0.25882,0.25882,0.96593,-108.99,100.14)">
        <path
           id="path5155"
           style="fill:none;stroke:#000000;stroke-width:1.63250005"
           d="m 468.18,465.9 h 13.43"
           inkscape:connector-curvature="0" />
        <path
           id="path5157"
           style="fill:none;stroke:#000000;stroke-width:1.63250005"
           d="m 468.18,469.16 h 13.43"
           inkscape:connector-curvature="0" />
        <path
           id="path5159"
           style="fill:none;stroke:#000000;stroke-width:1.63250005"
           d="m 468.18,472.43 h 13.43"
           inkscape:connector-curvature="0" />
        <path
           id="path5161"
           style="fill:none;stroke:#000000;stroke-width:1.63250005"
           d="m 468.18,475.69 h 8.9"
           inkscape:connector-curvature="0" />
        <path
           id="path5163"
           style="fill:none;stroke:#000000;stroke-width:1.63250005"
           d="m 468.18,480.05 h 13.43"
           inkscape:connector-curvature="0" />
        <path
           id="path5165"
           style="fill:none;stroke:#000000;stroke-width:1.63250005"
           d="m 468.18,483.31 h 13.43"
           inkscape:connector-curvature="0" />
        <path
           id="path5167"
           style="fill:none;stroke:#000000;stroke-width:1.63250005"
           d="m 468.18,486.58 h 13.43"
           inkscape:connector-curvature="0" />
        <path
           id="path5169"
           style="fill:none;stroke:#000000;stroke-width:1.63250005"
           d="m 468.18,489.84 h 13.43"
           inkscape:connector-curvature="0" />
        <path
           id="path5171"
           style="fill:none;stroke:#000000;stroke-width:1.63250005"
           d="m 468.18,493.11 h 9.46"
           inkscape:connector-curvature="0" />
      </g>
      <path
         id="rect4345"
         style="fill:#333333"
         d="m 470.77,407.03 c -3.18,0.85 -5.07,4.12 -4.22,7.3 0.21,0.78 0.57,1.48 1.03,2.08 l -5.74,1.54 1.61,5.99 22.12,-5.93 -1.6,-5.99 -5.74,1.54 c 0.1,-0.76 0.05,-1.54 -0.16,-2.32 -0.85,-3.18 -4.12,-5.07 -7.3,-4.21 z"
         inkscape:connector-curvature="0" />
      <rect
         id="rect5634"
         style="fill:none;stroke:#000000;stroke-width:1.3635"
         transform="matrix(0.96592583,-0.25881905,0.25881905,0.96592583,0,0)"
         height="6.1680002"
         width="6.1680002"
         y="534.38"
         x="353.38" />
      <path
         id="path5638"
         style="fill:#aa0000"
         d="m 481.88,424.79 c 0.39,0.39 0.79,0.75 1.18,1.13 0.1,0.1 0.21,0.19 0.3,0.3 0.11,0.13 0.19,0.28 0.29,0.42 0.13,0.18 0.26,0.37 0.4,0.55 0.04,0.05 0.66,0.89 0.75,0.98 0.42,0.42 1.65,0.13 -1.03,0.94 -0.15,0.05 0.11,-0.29 0.14,-0.44 0.05,-0.23 0.07,-0.47 0.1,-0.71 0.12,-1.22 0.15,-2.44 0.38,-3.64 0.15,-0.77 0.25,-1.04 0.46,-1.79 0.34,-1.18 0.8,-2.31 1.22,-3.46 l 1.36,-0.83 c -0.45,1.14 -0.9,2.29 -1.25,3.46 -0.21,0.72 -0.32,1.05 -0.47,1.78 -0.23,1.18 -0.28,2.4 -0.34,3.6 -0.01,0.23 -0.02,0.46 -0.04,0.7 -0.01,0.16 0.08,0.37 -0.04,0.48 -0.46,0.46 -1,0.85 -1.59,1.14 -0.09,0.05 -0.16,-0.15 -0.23,-0.23 -0.25,-0.32 -0.44,-0.69 -0.72,-1 -0.25,-0.3 -0.48,-0.61 -0.73,-0.92 -0.43,-0.52 -0.95,-0.97 -1.48,-1.38 l 1.34,-1.08 z"
         inkscape:connector-curvature="0" />
      <rect
         id="rect5640"
         style="fill:none;stroke:#000000;stroke-width:1.3635"
         transform="matrix(0.96592583,-0.25881905,0.25881905,0.96592583,0,0)"
         height="6.1680002"
         width="6.1680002"
         y="544.38"
         x="353.38" />
      <path
         id="path5642"
         style="fill:#aa0000"
         d="m 489.69,432.14 -1.22,0.93 c -0.75,1.33 -0.37,0.64 -1.14,2.09 -0.22,0.43 -0.44,0.87 -0.65,1.31 -0.85,-0.44 -1.72,-0.82 -2.64,-1.07 l -1.12,1.34 c 0.22,0.03 0.44,0.04 0.66,0.1 0.85,0.2 1.64,0.6 2.41,1.04 -0.55,1.15 -1.08,2.31 -1.6,3.47 l 1.41,-1.11 c 0.23,-0.68 0.5,-1.36 0.78,-2.02 0.18,0.1 0.35,0.21 0.52,0.31 0.76,0.49 1.43,1.09 2.16,1.61 l 1.16,-1.22 c -0.16,-0.1 -0.32,-0.2 -0.48,-0.31 -0.58,-0.41 -1.1,-0.9 -1.71,-1.26 -0.33,-0.2 -0.65,-0.39 -0.99,-0.57 0.4,-0.85 0.82,-1.69 1.25,-2.53 0.81,-1.46 0.41,-0.76 1.2,-2.11 z"
         inkscape:connector-curvature="0" />
      <rect
         id="rect5647"
         style="fill:none;stroke:#000000;stroke-width:1.3635"
         transform="matrix(0.96592583,-0.25881905,0.25881905,0.96592583,0,0)"
         height="6.1680002"
         width="6.1680002"
         y="554.37"
         x="353.38" />
      <path
         id="path5649"
         style="fill:#aa0000"
         d="m 486.99,443.72 c 0.32,0.44 0.67,0.85 1,1.28 0.09,0.12 0.18,0.22 0.25,0.34 0.09,0.15 0.16,0.31 0.23,0.46 0.11,0.2 0.21,0.4 0.31,0.6 0.04,0.06 0.53,0.98 0.61,1.08 0.35,0.47 1.62,0.37 -1.15,0.79 -0.16,0.02 0.14,-0.27 0.2,-0.42 0.08,-0.22 0.13,-0.46 0.2,-0.69 0.29,-1.19 0.5,-2.39 0.9,-3.55 0.25,-0.73 0.39,-0.99 0.7,-1.7 0.51,-1.12 1.13,-2.18 1.71,-3.26 l 1.46,-0.62 c -0.6,1.07 -1.22,2.13 -1.73,3.25 -0.31,0.68 -0.46,0.99 -0.71,1.69 -0.41,1.14 -0.63,2.33 -0.86,3.52 -0.04,0.22 -0.09,0.45 -0.14,0.68 -0.03,0.16 0.02,0.38 -0.11,0.48 -0.52,0.38 -1.11,0.69 -1.73,0.89 -0.1,0.04 -0.14,-0.17 -0.19,-0.26 -0.21,-0.35 -0.35,-0.75 -0.58,-1.09 -0.2,-0.33 -0.39,-0.68 -0.59,-1.01 -0.35,-0.58 -0.8,-1.1 -1.27,-1.59 l 1.49,-0.87 z"
         inkscape:connector-curvature="0" />
    </g>
  </g>
  <metadata
     id="metadata3173">
    <rdf:RDF>
      <cc:Work>
        <dc:format>image/svg+xml</dc:format>
        <dc:type
           rdf:resource="http://purl.org/dc/dcmitype/StillImage" />
        <cc:license
           rdf:resource="http://creativecommons.org/licenses/publicdomain/" />
        <dc:publisher>
          <cc:Agent
             rdf:about="http://openclipart.org/">
            <dc:title>Openclipart</dc:title>
          </cc:Agent>
        </dc:publisher>
        <dc:title>To-Do List</dc:title>
        <dc:date>2009-11-04T16:11:32</dc:date>
        <dc:description>clip art, clip board, clip board, clipart, image, list, list, media, office, office, png, public domain, svg, </dc:description>
        <dc:source>https://openclipart.org/detail/28096/to-do-list-by-sheikh_tuhin-28096</dc:source>
        <dc:creator>
          <cc:Agent>
            <dc:title>sheikh_tuhin</dc:title>
          </cc:Agent>
        </dc:creator>
        <dc:subject>
          <rdf:Bag>
            <rdf:li>clip board</rdf:li>
            <rdf:li>list</rdf:li>
            <rdf:li>office</rdf:li>
          </rdf:Bag>
        </dc:subject>
      </cc:Work>
      <cc:License
         rdf:about="http://creativecommons.org/licenses/publicdomain/">
        <cc:permits
           rdf:resource="http://creativecommons.org/ns#Reproduction" />
        <cc:permits
           rdf:resource="http://creativecommons.org/ns#Distribution" />
        <cc:permits
           rdf:resource="http://creativecommons.org/ns#DerivativeWorks" />
      </cc:License>
    </rdf:RDF>
  </metadata>
</svg>
